<?xml version="1.0" encoding="utf-8"?>
<!-- Generator: Adobe Illustrator 23.0.2, SVG Export Plug-In . SVG Version: 6.00 Build 0)  -->
<svg version="1.1" id="Capa_1" focusable="false" xmlns="http://www.w3.org/2000/svg" xmlns:xlink="http://www.w3.org/1999/xlink"
	 x="0px" y="0px" viewBox="0 0 512 512" style="enable-background:new 0 0 512 512;" xml:space="preserve">
<style type="text/css">
	.st0{fill:#FFFFFF;}
</style>
<path class="st0" d="M71.9,34.8C50.2,47.7,7.4,96.8,7,109.7v21.3c0,27.1,25.3,50.8,48.3,50.8c27.6,0,50.5-22.9,50.5-50
	c0,27.1,22.2,50,49.8,50s49-22.9,49-50c0,27.1,23.6,50,51.2,50h0.5c27.6,0,51.2-22.9,51.2-50c0,27.1,21.5,50,49,50
	s49.8-22.9,49.8-50c0,27.1,23,50,50.5,50c23,0,48.3-23.8,48.3-50.8v-21.3c-0.4-12.9-43.2-62.1-64.9-75C372.6,32.4,325.8,32,256,32
	S91.1,33.1,71.9,34.8z M204.2,169.2c-22,38.4-77.9,38.7-99.8,0.3c-13.2,23.1-43.2,32.1-56,27.7c-3.9,40.1-13.7,237.1,17.7,269.1
	c80,18.7,302.1,18.1,379.8,0c31.6-32.3,21.3-232,17.8-269.1c-12.9,4.4-42.9-4.6-56-27.7c-22,38.5-77.9,38.1-99.9-0.2
	c-7.1,12.5-23,28.9-51.8,28.9C234.7,198.8,214.8,187.6,204.2,169.2L204.2,169.2z M162.7,222.9c16.5,0,31.1,0,49.2,19.8
	c29.3-3,58.9-3,88.2,0c18.2-19.7,32.8-19.7,49.3-19.7c52.3,0,65.2,77.5,83.9,144.5c17.3,62.1-5.5,63.7-34,63.7
	c-42.1-1.6-65.5-32.2-65.5-62.8c-39.3,6.4-101.9,8.8-155.6,0c0,30.6-23.3,61.2-65.5,62.8c-28.4-0.1-51.2-1.6-33.9-63.7
	C97.4,300.5,110.3,223,162.7,222.9L162.7,222.9z M256,270.8c0,0-44.4,40.8-52.4,55.2l29-1.2v25.3c0,1.5,21.3,0.2,23.3,0.2
	c11.7,0.5,23.3,1,23.3-0.2v-25.3l29,1.2C300.3,311.6,255.9,270.8,256,270.8L256,270.8z"/>
</svg>
